PathFileType	4	(X/Y/Z)	C:/Users/opensim2020/Desktop/walking_exp_matlab/subject03_walking09_straight_03.trc																																																																																																																																											
DataRate	CameraRate	NumFrames	NumMarkers	Units	OrigDataRate	OrigDataStartFrame	OrigNumFrames																																																																																																																																							
100	100	4	47	mm	100	3083	383																																																																																																																																							
Frame#	Time	LFHD			RFHD			LBHD			RBHD			C7			T10			CLAV			STRN			RBAK			LSHO			LUPA			LELB			LFRM			LWRA			LWRB			LFIN			RSHO			RUPA			RELB			RFRM			RWRA			RWRB			RFIN			LASI			RASI			LPSI			RPSI			LTHI			LKNE			LTIB			LANK			LHEE			LTOE			RTHI			RKNE			RTIB			RANK			RHEE			RTOE			*39			*40			*41			*42			*43			*44			*45			*46		
		X1	Y1	Z1	X2	Y2	Z2	X3	Y3	Z3	X4	Y4	Z4	X5	Y5	Z5	X6	Y6	Z6	X7	Y7	Z7	X8	Y8	Z8	X9	Y9	Z9	X10	Y10	Z10	X11	Y11	Z11	X12	Y12	Z12	X13	Y13	Z13	X14	Y14	Z14	X15	Y15	Z15	X16	Y16	Z16	X17	Y17	Z17	X18	Y18	Z18	X19	Y19	Z19	X20	Y20	Z20	X21	Y21	Z21	X22	Y22	Z22	X23	Y23	Z23	X24	Y24	Z24	X25	Y25	Z25	X26	Y26	Z26	X27	Y27	Z27	X28	Y28	Z28	X29	Y29	Z29	X30	Y30	Z30	X31	Y31	Z31	X32	Y32	Z32	X33	Y33	Z33	X34	Y34	Z34	X35	Y35	Z35	X36	Y36	Z36	X37	Y37	Z37	X38	Y38	Z38	X39	Y39	Z39	X40	Y40	Z40	X41	Y41	Z41	X42	Y42	Z42	X43	Y43	Z43	X44	Y44	Z44	X45	Y45	Z45	X46	Y46	Z46	X47	Y47	Z47
																																																																																																																																														
288	2.87	1086.52441	1611.80908	-1044.8446	1065.01294	1609.25708	-913.60571	959.75128	1568.12744	-1062.60168	944.01776	1565.52832	-933.0329	917.67871	1406.65796	-1003.8421	885.69678	1092.62061	-1009.23584	1038.51746	1329.16821	-1006.19989	1082.20203	1164.71021	-1011.51343	866.03546	1230.97205	-906.56128	990.16132	1367.30054	-1161.44556	966.11163	1169.05908	-1231.72852	965.59888	1045.90405	-1243.95544	994.43689	919.05048	-1243.91406	1022.09576	804.10614	-1213.33374	991.83893	805.66205	-1260.25415	1013.31049	724.40552	-1250.84875	999.43011	1350.28552	-845.99603	1040.11597	1133.71301	-772.83862	1083.18079	1029.60364	-761.75543	1140.07983	905.28699	-767.94507	1194.12354	825.84204	-811.91376	1171.41174	809.8006	-765.33362	1214.94775	751.31287	-781.47375	1058.43384	928.1106	-1119.07727	1045.87439	929.32312	-881.2243	893.5387	949.11646	-1081.42688	887.47009	962.8739	-931.49658	1061.95679	627.39307	-1168.36487	1124.76672	463.66687	-1120.12012	1136.78137	275.02014	-1125.25452	1192.56152	70.49011	-1092.81616	1163.87903	26.85909	-1053.73743	1345.25305	69.38462	-1073.32471	951.23779	639.98419	-852.24365	930.58417	461.52014	-888.94775	837.37579	290.94717	-891.79968	752.20978	92.58032	-945.70978	702.71497	71.85281	-996.84967	884.3645	31.30991	-959.37018	996.47064	1669.11206	-1003.55322	NaN	NaN	NaN	NaN	NaN	NaN	NaN	NaN	NaN	NaN	NaN	NaN	NaN	NaN	NaN	NaN	NaN	NaN	NaN	NaN	NaN
289	2.88	1093.82227	1611.46497	-1045.25183	1071.9657	1608.88831	-914.03998	967.14807	1567.63306	-1063.3562	951.11218	1564.95105	-933.79382	925.22729	1406.09045	-1004.93555	893.86328	1091.79211	-1010.47809	1046.18689	1328.72009	-1006.72882	1089.94836	1164.24597	-1011.79767	873.2052	1230.37122	-907.99744	998.50159	1366.70862	-1162.18774	974.2561	1168.41272	-1232.15955	973.15894	1045.28369	-1244.198	1000.91498	918.02997	-1243.69434	1027.32458	802.85895	-1212.823	997.21869	804.60693	-1259.97754	1017.81238	723.08142	-1250.07324	1006.18317	1349.72217	-846.677	1046.44604	1133.06274	-773.4798	1089.3418	1028.85266	-762.44287	1146.19873	904.58368	-768.76257	1200.28882	825.25018	-812.75568	1177.52954	809.03705	-766.25366	1221.10071	750.61499	-782.54089	1066.8335	927.37781	-1119.25513	1052.69629	928.79291	-881.52686	901.73505	948.77966	-1082.85706	894.67645	962.57172	-932.95764	1069.27893	626.48059	-1167.78882	1131.03271	462.59406	-1119.33167	1142.83337	273.97974	-1125.16199	1198.39844	69.18327	-1092.40662	1169.40515	25.5395	-1053.76953	1351.05811	68.37763	-1070.98718	956.63879	639.89911	-852.47021	935.27734	461.45114	-888.82928	840.24792	291.67398	-891.724	753.06207	94.1685	-945.55426	703.45129	74.00739	-996.81458	884.59058	31.3281	-959.15802	1003.63525	1668.68713	-1004.22345	NaN	NaN	NaN	NaN	NaN	NaN	NaN	NaN	NaN	NaN	NaN	NaN	NaN	NaN	NaN	NaN	NaN	NaN	NaN	NaN	NaN
290	2.89	1101.14978	1611.17261	-1045.68213	1078.91309	1608.50391	-914.52704	974.56854	1567.15771	-1064.13037	958.1759	1564.4646	-934.6792	932.89844	1405.46997	-1006.11639	901.82886	1091.22546	-1011.84534	1053.95593	1328.26355	-1007.31909	1097.85828	1163.80969	-1012.11664	880.45337	1229.78455	-909.54059	1006.89777	1366.18921	-1163.04382	982.61096	1167.63599	-1232.88721	980.9588	1044.53271	-1244.24683	1007.59979	917.03473	-1243.54016	1032.80652	801.67609	-1212.42432	1003.03546	803.72522	-1259.85693	1022.49292	721.81348	-1249.39685	1013.03986	1349.21228	-847.36304	1052.65674	1132.4657	-774.21722	1095.38708	1028.13354	-763.1488	1152.13049	903.83698	-769.539	1206.25464	824.49866	-813.5639	1183.44409	808.26324	-767.16791	1226.95007	749.78693	-783.50061	1075.40503	926.76398	-1119.48547	1059.75244	928.29309	-881.8924	910.05432	948.44708	-1084.22949	902.09827	962.1571	-934.33856	1077.23987	625.8299	-1167.27478	1137.48645	461.56174	-1118.7262	1148.37341	272.71249	-1124.86682	1202.65466	67.6021	-1091.95654	1172.6897	24.81013	-1054.19214	1355.07312	66.07165	-1067.86792	962.27911	639.71222	-852.69867	940.27985	461.23651	-888.72968	843.38245	292.42715	-891.64478	753.91461	95.80769	-945.19714	704.31152	76.14065	-996.64819	884.25812	30.67978	-959.18494	1010.96851	1668.3335	-1005.29694	NaN	NaN	NaN	NaN	NaN	NaN	NaN	NaN	NaN	NaN	NaN	NaN	NaN	NaN	NaN	NaN	NaN	NaN	NaN	NaN	NaN
291	2.9	1108.48523	1610.88879	-1046.14844	1085.92175	1608.16113	-915.05963	982.01099	1566.62244	-1064.92041	965.22791	1563.86414	-935.5802	940.62366	1404.92407	-1007.36829	909.8924	1090.66187	-1013.22125	1061.81763	1327.83423	-1007.9729	1105.89648	1163.40479	-1012.46747	887.84113	1229.09692	-911.13477	1015.43732	1365.68176	-1163.94836	991.03217	1167.31628	-1233.13672	988.89661	1043.83582	-1244.47131	1014.45288	916.10181	-1243.46411	1038.40564	800.51501	-1211.91199	1008.94031	802.55823	-1259.48132	1027.34851	720.54004	-1248.86182	1019.93146	1348.76233	-848.19635	1058.86011	1131.84326	-774.95331	1101.28186	1027.41809	-763.88531	1157.88977	903.03949	-770.20172	1212.0907	823.77173	-814.25818	1189.06238	807.42621	-767.90015	1232.58252	748.91754	-784.30713	1084.11755	926.20465	-1119.78308	1066.90942	927.74048	-882.30658	918.39203	948.08386	-1085.57251	909.6972	961.71094	-935.71924	1085.60925	625.35315	-1166.94397	1144.0564	460.50876	-1118.27319	1153.23535	271.31854	-1124.76807	1205.4386	65.81921	-1091.37354	1173.85901	24.16907	-1054.50659	1357.42029	62.09893	-1064.35828	968.14941	639.55194	-852.96033	945.6098	461.02182	-888.53735	846.75458	293.15714	-891.4906	754.98682	97.57464	-944.93457	705.22632	78.48892	-996.42078	884.45117	30.66303	-959.01666	1017.93494	1667.75854	-1005.49579	NaN	NaN	NaN	NaN	NaN	NaN	NaN	NaN	NaN	NaN	NaN	NaN	NaN	NaN	NaN	NaN	NaN	NaN	NaN	NaN	NaN
